<svg width="100" height="100" viewBox="0 0 100 100" fill="none" xmlns="http://www.w3.org/2000/svg">
  <!-- Location Pin & Cloud Hybrid Shape -->
  <path d="M50 95C50 95 85 65.5 85 40C85 20.67 69.33 5 50 5C30.67 5 15 20.67 15 40C15 65.5 50 95 50 95Z" fill="#0EA5E9"/>
  
  <!-- Cloud Element -->
  <circle cx="40" cy="45" r="12" fill="white" fill-opacity="0.8"/>
  <circle cx="55" cy="45" r="15" fill="white"/>
  <circle cx="65" cy="50" r="10" fill="white" fill-opacity="0.8"/>
  <rect x="40" y="48" width="25" height="12" fill="white"/>

  <!-- Subtle Inner Detail -->
  <path d="M50 25C41.7157 25 35 31.7157 35 40C35 48.2843 41.7157 55 50 55C58.2843 55 65 48.2843 65 40C65 31.7157 58.2843 25 50 25ZM50 50C44.4772 50 40 45.5228 40 40C40 34.4772 44.4772 30 50 30C55.5228 30 60 34.4772 60 40C60 45.5228 55.5228 50 50 50Z" fill="white" fill-opacity="0.2"/>
</svg>
